<svg width="60" height="38" viewBox="0 0 60 38" fill="none" xmlns="http://www.w3.org/2000/svg">
  <rect width="60" height="38" rx="4" fill="white"/>
  <rect x="0.5" y="0.5" width="59" height="37" rx="3.5" stroke="#E5E7EB"/>
  <path d="M23.5 12L20.5 26H17.5L20.5 12H23.5Z" fill="#1A1F71"/>
  <path d="M32 12.5L28.5 21L27 15C26.8 14.2 26.2 12.5 24 12.5H19L19 13C21 13.5 22.8 14.5 24 15.5L27 26H30L36 12H32.5L32 12.5Z" fill="#1A1F71"/>
  <path d="M40 12C39 12 38 12.5 37.5 13.5L33 26H36L37 23H41L41.5 26H44L42 12H40ZM38.5 20.5L40 15.5L41 20.5H38.5Z" fill="#1A1F71"/>
  <path d="M15 13C14 12.5 12.5 12 11 12C8.5 12 7 13.5 7 15.5C7 17.5 9 18.5 10.5 19C12 19.5 12.5 20 12.5 20.5C12.5 21.5 11.5 22 10.5 22C9 22 8 21.5 7.5 21L7 24C8 24.5 9 25 10.5 25C13.5 25 15 23.5 15 21.5C15 19.5 13 18.5 11.5 18C10.5 17.5 9.5 17.5 9.5 16.5C9.5 15.8 10 15 11.5 15C12.5 15 13.5 15.5 14 15.5L15 13Z" fill="#1A1F71"/>
</svg>
